<svg width="122" height="37" viewBox="0 0 122 37" fill="none" xmlns="http://www.w3.org/2000/svg">
<path d="M6.876 28.648C4.692 28.648 3.036 28.048 1.908 26.848C0.804 25.648 0.252 24.136 0.252 22.312C0.252 21.016 0.516 19.72 1.044 18.424C1.596 17.104 2.376 15.952 3.384 14.968C4.392 13.984 5.568 13.324 6.912 12.988C6.168 12.46 5.616 11.824 5.256 11.08C4.896 10.312 4.716 9.508 4.716 8.668C4.716 7.42 5.052 6.196 5.724 4.996C6.42 3.796 7.368 2.824 8.568 2.08C9.792 1.312 11.136 0.927999 12.6 0.927999C14.112 0.927999 15.348 1.324 16.308 2.116C17.268 2.908 17.748 4.012 17.748 5.428C17.748 6.484 17.484 7.372 16.956 8.092C16.428 8.812 15.804 9.172 15.084 9.172C14.436 9.172 13.872 8.848 13.392 8.2C13.824 8.056 14.196 7.66 14.508 7.012C14.82 6.364 14.976 5.716 14.976 5.068C14.976 4.372 14.784 3.868 14.4 3.556C14.016 3.22 13.548 3.052 12.996 3.052C12.3 3.052 11.664 3.304 11.088 3.808C10.536 4.288 10.104 4.924 9.792 5.716C9.48 6.484 9.324 7.288 9.324 8.128C9.324 9.28 9.624 10.3 10.224 11.188C10.824 12.052 11.736 12.64 12.96 12.952C11.736 13.216 10.632 13.816 9.648 14.752C8.664 15.688 7.896 16.78 7.344 18.028C6.792 19.252 6.516 20.428 6.516 21.556C6.516 22.636 6.792 23.512 7.344 24.184C7.92 24.856 8.784 25.192 9.936 25.192C11.136 25.192 12.384 24.868 13.68 24.22C15 23.548 15.972 22.648 16.596 21.52L17.424 21.88C16.488 23.944 15.048 25.588 13.104 26.812C11.16 28.036 9.084 28.648 6.876 28.648ZM21.3834 28.216C20.0154 28.216 18.8754 27.748 17.9634 26.812C17.0514 25.876 16.5954 24.412 16.5954 22.42C16.5954 20.644 16.9434 18.784 17.6394 16.84C18.3594 14.872 19.4154 13.216 20.8074 11.872C22.2234 10.504 23.9034 9.82 25.8474 9.82C26.8314 9.82 27.5634 9.988 28.0434 10.324C28.5234 10.66 28.7634 11.104 28.7634 11.656V11.908L29.1594 10H34.3434L31.7514 22.24C31.6554 22.6 31.6074 22.984 31.6074 23.392C31.6074 24.424 32.0994 24.94 33.0834 24.94C33.7554 24.94 34.3314 24.628 34.8114 24.004C35.3154 23.38 35.7114 22.564 35.9994 21.556H37.5114C36.6234 24.148 35.5194 25.912 34.1994 26.848C32.9034 27.76 31.5954 28.216 30.2754 28.216C29.2674 28.216 28.4514 27.94 27.8274 27.388C27.2274 26.812 26.8674 25.984 26.7474 24.904C26.0514 25.888 25.2714 26.692 24.4074 27.316C23.5674 27.916 22.5594 28.216 21.3834 28.216ZM23.7234 24.724C24.3234 24.724 24.9114 24.448 25.4874 23.896C26.0874 23.32 26.4954 22.54 26.7114 21.556L28.4394 13.42C28.4394 13.108 28.3194 12.808 28.0794 12.52C27.8394 12.208 27.4674 12.052 26.9634 12.052C26.0034 12.052 25.1394 12.616 24.3714 13.744C23.6034 14.848 23.0034 16.192 22.5714 17.776C22.1394 19.336 21.9234 20.716 21.9234 21.916C21.9234 23.116 22.0914 23.884 22.4274 24.22C22.7874 24.556 23.2194 24.724 23.7234 24.724ZM40.6567 28.216C39.5047 28.216 38.5327 28 37.7407 27.568C36.9487 27.112 36.3607 26.536 35.9767 25.84C35.5927 25.12 35.4007 24.376 35.4007 23.608C35.4007 22.816 35.5927 22.132 35.9767 21.556C36.3367 20.956 36.7807 20.524 37.3087 20.26C38.2447 18.58 39.0607 16.888 39.7567 15.184C40.4527 13.456 41.1127 11.596 41.7367 9.604L47.0647 8.884C47.1847 11.956 47.3887 15.28 47.6767 18.856C47.7967 20.296 47.8567 21.34 47.8567 21.988C47.8567 22.54 47.8087 22.996 47.7127 23.356C48.8407 22.708 49.7047 22.108 50.3047 21.556H51.8167C50.2807 23.332 48.4447 24.832 46.3087 26.056C45.6127 26.8 44.7487 27.352 43.7167 27.712C42.7087 28.048 41.6887 28.216 40.6567 28.216ZM39.5047 25.372C40.3927 25.372 41.1367 25.108 41.7367 24.58C42.3367 24.052 42.6367 23.2 42.6367 22.024C42.6367 21.304 42.5647 20.296 42.4207 19C42.1807 16.264 42.0247 14.428 41.9527 13.492C41.3767 15.388 40.4047 17.656 39.0367 20.296C39.5887 20.584 39.8647 21.004 39.8647 21.556C39.8647 22.012 39.7087 22.42 39.3967 22.78C39.1087 23.14 38.7367 23.32 38.2807 23.32C37.7767 23.32 37.4527 23.164 37.3087 22.852C37.3087 23.716 37.4767 24.352 37.8127 24.76C38.1727 25.168 38.7367 25.372 39.5047 25.372ZM56.4547 37C55.3267 37 54.3307 36.628 53.4667 35.884C52.6267 35.164 52.2067 34.24 52.2067 33.112C52.2067 32.056 52.4707 31.192 52.9987 30.52C53.5267 29.848 54.2107 29.32 55.0507 28.936C55.8907 28.552 57.0187 28.144 58.4347 27.712L58.7947 26.128C57.5707 27.52 56.1067 28.216 54.4027 28.216C53.2507 28.216 52.3147 27.856 51.5947 27.136C50.8987 26.416 50.5507 25.336 50.5507 23.896C50.5507 23.296 50.6467 22.516 50.8387 21.556L53.2867 10H58.4707L55.8787 22.24C55.8067 22.528 55.7707 22.828 55.7707 23.14C55.7707 24.196 56.1307 24.724 56.8507 24.724C57.5227 24.724 58.0987 24.448 58.5787 23.896C59.0587 23.32 59.4427 22.54 59.7307 21.556L62.1787 10H67.3987L63.0067 30.88C62.5267 33.184 61.6747 34.78 60.4507 35.668C59.2507 36.556 57.9187 37 56.4547 37ZM55.6267 33.796C56.0587 33.796 56.4667 33.568 56.8507 33.112C57.2347 32.68 57.5347 31.972 57.7507 30.988L58.1827 28.864C56.9107 29.296 55.9267 29.8 55.2307 30.376C54.5347 30.952 54.1867 31.696 54.1867 32.608C54.1867 32.896 54.3307 33.16 54.6187 33.4C54.9067 33.664 55.2427 33.796 55.6267 33.796ZM81.8693 28.612C80.9093 28.612 80.0693 28.408 79.3493 28C78.6533 27.616 78.3053 26.932 78.3053 25.948C78.3053 25.324 78.4613 24.628 78.7733 23.86C79.2053 24.34 79.6013 24.676 79.9613 24.868C80.3453 25.06 80.7533 25.156 81.1853 25.156C82.3853 25.156 83.2733 24.484 83.8493 23.14C84.4493 21.796 84.7493 20.308 84.7493 18.676C84.7493 15.628 83.6093 14.104 81.3293 14.104C80.6813 14.104 80.1293 14.14 79.6733 14.212L76.7213 28H71.5373L76.4333 5.104L81.7613 4.384L80.0693 12.376H80.2853C81.1973 12.376 82.0493 12.088 82.8413 11.512C83.6333 10.912 84.2693 10.168 84.7493 9.28C85.2293 8.368 85.4693 7.456 85.4693 6.544C85.4693 5.44 85.0733 4.516 84.2813 3.772C83.5133 3.028 82.3253 2.656 80.7173 2.656C79.2533 2.656 77.8253 2.992 76.4333 3.664C75.0413 4.312 73.9013 5.296 73.0133 6.616C72.1493 7.936 71.7173 9.532 71.7173 11.404C71.7173 12.292 71.8013 12.916 71.9693 13.276C72.1373 13.612 72.2213 13.804 72.2213 13.852C70.9493 13.852 69.9893 13.6 69.3413 13.096C68.6933 12.568 68.3693 11.716 68.3693 10.54C68.3693 8.908 68.9813 7.36 70.2053 5.896C71.4293 4.432 73.0493 3.256 75.0653 2.368C77.0813 1.456 79.2053 0.999998 81.4373 0.999998C83.1173 0.999998 84.5333 1.264 85.6853 1.792C86.8373 2.32 87.6893 3.016 88.2413 3.88C88.8173 4.744 89.1053 5.692 89.1053 6.724C89.1053 7.828 88.7933 8.896 88.1693 9.928C87.5453 10.96 86.6573 11.8 85.5053 12.448C86.9453 12.712 88.0133 13.384 88.7093 14.464C89.4053 15.52 89.7533 16.78 89.7533 18.244C89.7533 19.612 89.4893 21.1 88.9613 22.708C88.4573 24.316 87.6053 25.708 86.4053 26.884C85.2293 28.036 83.7173 28.612 81.8693 28.612ZM95.1038 28.216C93.9518 28.216 93.0158 27.856 92.2958 27.136C91.5998 26.416 91.2518 25.336 91.2518 23.896C91.2518 23.296 91.3478 22.516 91.5398 21.556L93.9878 10H99.1718L96.5798 22.24C96.5078 22.6 96.4718 22.936 96.4718 23.248C96.4718 24.232 96.8318 24.724 97.5518 24.724C98.2238 24.724 98.7998 24.448 99.2798 23.896C99.7598 23.32 100.144 22.54 100.432 21.556L102.88 10H108.064L105.472 22.24C105.376 22.6 105.328 22.984 105.328 23.392C105.328 23.872 105.436 24.22 105.652 24.436C105.892 24.628 106.276 24.724 106.804 24.724C107.476 24.724 108.052 24.436 108.532 23.86C109.036 23.284 109.432 22.516 109.72 21.556H111.232C110.344 24.148 109.24 25.912 107.92 26.848C106.624 27.76 105.316 28.216 103.996 28.216C102.964 28.216 102.136 27.928 101.512 27.352C100.912 26.776 100.552 25.924 100.432 24.796C99.6158 26.116 98.7518 27.016 97.8398 27.496C96.9518 27.976 96.0398 28.216 95.1038 28.216ZM114.36 28.216C113.208 28.216 112.236 28 111.444 27.568C110.652 27.112 110.064 26.536 109.68 25.84C109.296 25.12 109.104 24.376 109.104 23.608C109.104 22.816 109.296 22.132 109.68 21.556C110.04 20.956 110.484 20.524 111.012 20.26C111.948 18.58 112.764 16.888 113.46 15.184C114.156 13.456 114.816 11.596 115.44 9.604L120.768 8.884C120.888 11.956 121.092 15.28 121.38 18.856C121.5 20.296 121.56 21.34 121.56 21.988C121.56 23.452 121.188 24.652 120.444 25.588C119.7 26.524 118.776 27.196 117.672 27.604C116.592 28.012 115.488 28.216 114.36 28.216ZM113.208 25.372C114.096 25.372 114.84 25.108 115.44 24.58C116.04 24.052 116.34 23.2 116.34 22.024C116.34 21.304 116.268 20.296 116.124 19C115.884 16.264 115.728 14.428 115.656 13.492C115.08 15.388 114.108 17.656 112.74 20.296C113.292 20.584 113.568 21.004 113.568 21.556C113.568 22.012 113.412 22.42 113.1 22.78C112.812 23.14 112.44 23.32 111.984 23.32C111.48 23.32 111.156 23.164 111.012 22.852C111.012 23.716 111.18 24.352 111.516 24.76C111.876 25.168 112.44 25.372 113.208 25.372Z" fill="url(#paint0_linear_210_3)"/>
<defs>
<linearGradient id="paint0_linear_210_3" x1="61" y1="1" x2="61" y2="31" gradientUnits="userSpaceOnUse">
<stop stop-color="#E85435" stop-opacity="0.87"/>
<stop offset="1" stop-color="#EFC4BB"/>
</linearGradient>
</defs>
</svg>
